o ModelComponent
v -0.256273 0.09539 0.900955
v -0.256273 0.15 0.854439
v -0.854439 0.15 0.854439
v -0.900955 0.09539 0.900955
v 0.947327 0.09539 0.193691
v 0.947327 0.09539 -0.193691
v 0.898415 0.12217 -0.193691
v 0.898415 0.122169 0.193691
v -0.947327 0.09539 -0.193691
v -0.947327 0.09539 0.193691
v -0.898415 0.122169 0.193691
v -0.898415 0.12217 -0.193691
v 0.193691 0.09539 -0.947327
v -0.193691 0.09539 -0.947327
v -0.193691 0.12217 -0.898415
v 0.193691 0.12217 -0.898415
v -0.854439 0.15 0.256271
v -0.900955 0.09539 0.256271
v 0.854439 0.15 0.854439
v 0.256273 0.15 0.854439
v 0.256273 0.09539 0.900955
v 0.900955 0.09539 0.900955
v -0.193691 0.09539 0.947327
v -0.193691 0.122169 0.898415
v 0.193691 0.09539 0.947327
v 0.193691 0.122169 0.898415
v -0.854439 0.15 -0.854439
v -0.900955 0.09539 -0.900955
v -0.900955 0.09539 -0.256271
v -0.854439 0.15 -0.256271
v -0.256271 0.15 -0.854439
v -0.256271 0.09539 -0.900955
v -0.815 0.15 0.815
v -0.815 0.15 -0.815
v 0.900955 0.09539 0.256273
v 0.854439 0.15 0.256271
v 0.815 0.15 0.815
v 0.900955 0.09539 -0.256271
v 0.854439 0.15 -0.256271
v 0.815 0.15 -0.815
v 0.256273 0.095559 -0.900955
v 0.256273 0.15 -0.854439
v 0.900955 0.09539 -0.9
v 0.861069 0.15 -0.854
v 0.69 0.15 -0.854439
vt 0.3379 0.0922
vt 0.3389 0.1246
vt 0.0574 0.1296
vt 0.0296 0.1017
vt 0.9208 0.4414
vt 0.9215 0.6248
vt 0.895 0.6255
vt 0.8943 0.4409
vt 0.0025 0.6253
vt 0.0024 0.4417
vt 0.0289 0.4411
vt 0.029 0.6259
vt 0.5527 0.9935
vt 0.3693 0.993
vt 0.3687 0.9665
vt 0.5533 0.967
vt 0.0524 0.4111
vt 0.02 0.4101
vt 0.865 0.1295
vt 0.5838 0.1247
vt 0.5847 0.0923
vt 0.8929 0.1016
vt 0.3696 0.0745
vt 0.3689 0.1011
vt 0.5531 0.0747
vt 0.5537 0.1012
vt 0.0572 0.9373
vt 0.0293 0.9651
vt 0.0201 0.6569
vt 0.0525 0.656
vt 0.3387 0.9429
vt 0.3376 0.9753
vt 0.072690289289 0.144877603789
vt 0.072690289289 0.922597025211
vt 0.0538728191899434 0.656011507044317
vt 0.0538728191899434 0.411463121955683
vt 0.903 0.4098
vt 0.8706 0.4109
vt 0.339274853198724 0.126060133689943
vt 0.583825146801276 0.126060133689943
vt 0.850409710711 0.144877603789
vt 0.9041 0.6566
vt 0.8712 0.6553
vt 0.869227180810057 0.411463121955683
vt 0.869227180810057 0.656011507044317
vt 0.850409710711 0.922597025211
vt 0.5846 0.9759
vt 0.5829 0.9432
vt 0.583825146801276 0.941414495310057
vt 0.339275807455683 0.941414495310057
vt 0.8996 0.7425
vt 0.8724 0.7207
vt 0.583825146801276 0.963608603657827
vt 0.790768650786 0.941414495310057
vt 0.872390542628479 0.9412050359076
vt 0.891421289157827 0.96315294596
vt 0.0538728191899434 0.941414495310057
vt 0.869227180810057 0.126060133689943
vt 0.0538728191899434 0.126060133689943
vn -0.0318 0.6943 0.7189
vn -0.0159 0.6893 0.7243
vn -0.1563 0.9753 0.1563
vn -0.5932 0.5441 0.5933
vn 0.4956 0.868 0.0319
vn 0.4964 0.8675 -0.0318
vn 0.5113 0.8571 -0.0622
vn 0.5096 0.8581 0.0622
vn -0.4956 0.868 -0.0319
vn -0.4956 0.868 0.0319
vn -0.5096 0.8581 0.0623
vn -0.5096 0.8581 -0.0623
vn 0.0316 0.8676 -0.4963
vn -0.0319 0.868 -0.4956
vn -0.0623 0.8581 -0.5096
vn 0.0618 0.8573 -0.5111
vn -0.7243 0.6893 0.0159
vn -0.7189 0.6943 0.0318
vn 0.1563 0.9753 0.1563
vn 0.0159 0.6893 0.7243
vn 0.0318 0.6943 0.7189
vn 0.5932 0.5441 0.5933
vn -0.0319 0.868 0.4956
vn -0.0622 0.8581 0.5096
vn 0.0319 0.868 0.4956
vn 0.0622 0.8581 0.5096
vn -0.4257 0.7985 -0.4257
vn -0.7189 0.6943 -0.0318
vn -0.7243 0.6893 -0.0159
vn -0.0193 0.9998 0.0022
vn -0.0193 0.9998 -0.0022
vn -0.4605 0.8876 0
vn 0.0022 0.9998 0.0193
vn -0.0022 0.9998 0.0193
vn 0 0.8876 0.4605
vn -0.0159 0.6893 -0.7243
vn -0.0318 0.6943 -0.7189
vn -0.0068 1 0.0068
vn -0.0069 1 -0.0062
vn 0.7189 0.6943 0.0318
vn 0.7243 0.6893 0.0159
vn 0.0062 1 0.0069
vn 0.7223 0.6861 -0.0864
vn 0.7414 0.6697 -0.0433
vn 0.022 0.9998 0
vn 0.0176 0.9998 0.0023
vn 0.4709 0.8822 0.0013
vn 0.006 1 -0.006
vn 0.1119 0.7082 -0.6971
vn 0.0665 0.6954 -0.7155
vn -0.0013 0.8822 -0.4709
vn -0.0023 0.9998 -0.0176
vn 0 0.9998 -0.0222
vn 0.7644 0.6446 0.0156
vn 0.23975 0.7079 -0.60525
vn 0.4828 0.7209 -0.4972
vn -0.0068 1 -0.0068
vn -0.0003 1 -0.0017
vn 0.002 1 0.0003
vn 0 1 0
g ModelComponent
f 1/1/1 2/2/2 3/3/3 4/4/4
f 5/5/5 6/6/6 7/7/7 8/8/8
f 9/9/9 10/10/10 11/11/11 12/12/12
f 13/13/13 14/14/14 15/15/15 16/16/16
f 3/3/3 17/17/17 18/18/18 4/4/4
f 19/19/19 20/20/20 21/21/21 22/22/22
f 1/1/1 23/23/23 24/24/24 2/2/2
f 23/23/23 25/25/25 26/26/26 24/24/24
f 21/21/21 20/20/20 26/26/26 25/25/25
f 18/18/18 17/17/17 11/11/11 10/10/10
f 27/27/27 28/28/27 29/29/28 30/30/29
f 29/29/28 9/9/9 12/12/12 30/30/29
f 17/17/30 30/30/31 12/12/32 11/11/32
f 20/20/33 2/2/34 24/24/35 26/26/35
f 27/27/27 31/31/36 32/32/37 28/28/27
f 32/32/37 31/31/36 15/15/15 14/14/14
f 33/33/38 34/34/39 30/35/31 17/36/30
f 19/19/19 22/22/22 35/37/40 36/38/41
f 35/37/40 5/5/5 8/8/8 36/38/41
f 33/33/38 2/39/34 20/40/33 37/41/42
f 38/42/43 39/43/44 7/7/7 6/6/6
f 39/43/45 36/38/46 8/8/47 7/7/47
f 37/41/42 36/44/46 39/45/45 40/46/48
f 41/47/49 13/13/13 16/16/16 42/48/50
f 16/16/51 15/15/51 31/31/52 42/48/53
f 40/46/48 42/49/53 31/50/52 34/34/39
f 43/51/54 44/52/54 39/43/44 38/42/43
f 41/53/49 42/49/50 45/54/55
f 45/54/55 44/55/56 43/56/56 41/53/49
f 34/34/39 31/50/52 27/57/57
f 27/57/57 30/35/31 34/34/39
f 40/46/48 39/45/45 44/55/58
f 44/55/58 45/54/59 42/49/53 40/46/48
f 19/58/19 36/44/46 37/41/42
f 37/41/42 20/40/33 19/58/19
f 33/33/38 17/36/30 3/59/3
f 3/59/3 2/39/34 33/33/38
f 34/34/60 33/33/60 37/41/60 40/46/60
#h 
